<svg width="60" height="60" viewBox="0 0 60 60" fill="none" xmlns="http://www.w3.org/2000/svg">
<path d="M30 9C28.8065 9 27.6619 9.47411 26.818 10.318C25.9741 11.1619 25.5 12.3065 25.5 13.5C25.5 14.6935 25.9741 15.8381 26.818 16.682C27.6619 17.5259 28.8065 18 30 18C31.1935 18 32.3381 17.5259 33.182 16.682C34.0259 15.8381 34.5 14.6935 34.5 13.5C34.5 12.3065 34.0259 11.1619 33.182 10.318C32.3381 9.47411 31.1935 9 30 9ZM22.5 13.5C22.5 11.5109 23.2902 9.60322 24.6967 8.1967C26.1032 6.79018 28.0109 6 30 6C31.9891 6 33.8968 6.79018 35.3033 8.1967C36.7098 9.60322 37.5 11.5109 37.5 13.5C37.5 15.4891 36.7098 17.3968 35.3033 18.8033C33.8968 20.2098 31.9891 21 30 21C28.0109 21 26.1032 20.2098 24.6967 18.8033C23.2902 17.3968 22.5 15.4891 22.5 13.5ZM46.5 12C45.7044 12 44.9413 12.3161 44.3787 12.8787C43.8161 13.4413 43.5 14.2044 43.5 15C43.5 15.7957 43.8161 16.5587 44.3787 17.1213C44.9413 17.6839 45.7044 18 46.5 18C47.2957 18 48.0587 17.6839 48.6213 17.1213C49.1839 16.5587 49.5 15.7957 49.5 15C49.5 14.2044 49.1839 13.4413 48.6213 12.8787C48.0587 12.3161 47.2957 12 46.5 12ZM40.5 15C40.5 13.4087 41.1321 11.8826 42.2574 10.7574C43.3826 9.63214 44.9087 9 46.5 9C48.0913 9 49.6174 9.63214 50.7426 10.7574C51.8679 11.8826 52.5 13.4087 52.5 15C52.5 16.5913 51.8679 18.1174 50.7426 19.2426C49.6174 20.3679 48.0913 21 46.5 21C44.9087 21 43.3826 20.3679 42.2574 19.2426C41.1321 18.1174 40.5 16.5913 40.5 15ZM10.5 15C10.5 14.2044 10.8161 13.4413 11.3787 12.8787C11.9413 12.3161 12.7044 12 13.5 12C14.2957 12 15.0587 12.3161 15.6213 12.8787C16.1839 13.4413 16.5 14.2044 16.5 15C16.5 15.7957 16.1839 16.5587 15.6213 17.1213C15.0587 17.6839 14.2957 18 13.5 18C12.7044 18 11.9413 17.6839 11.3787 17.1213C10.8161 16.5587 10.5 15.7957 10.5 15ZM13.5 9C11.9087 9 10.3826 9.63214 9.25736 10.7574C8.13214 11.8826 7.5 13.4087 7.5 15C7.5 16.5913 8.13214 18.1174 9.25736 19.2426C10.3826 20.3679 11.9087 21 13.5 21C15.0913 21 16.6174 20.3679 17.7426 19.2426C18.8679 18.1174 19.5 16.5913 19.5 15C19.5 13.4087 18.8679 11.8826 17.7426 10.7574C16.6174 9.63214 15.0913 9 13.5 9ZM15.3 44.994C14.4877 45.0347 13.6756 44.9098 12.9131 44.6269C12.1505 44.344 11.4535 43.909 10.8642 43.3484C10.275 42.7878 9.8059 42.1132 9.48542 41.3657C9.16495 40.6182 8.9998 39.8133 9 39V27.75C9 27.5511 9.07902 27.3603 9.21967 27.2197C9.36032 27.079 9.55109 27 9.75 27H15.042C15.162 25.899 15.552 24.876 16.137 24H9.75C7.68 24 6 25.68 6 27.75V39C5.99986 40.2844 6.27462 41.5539 6.80581 42.7232C7.33699 43.8926 8.11231 44.9347 9.07966 45.7796C10.047 46.6245 11.184 47.2525 12.4142 47.6215C13.6444 47.9905 14.9393 48.092 16.212 47.919C15.8082 46.978 15.5026 45.9978 15.3 44.994ZM43.788 47.919C45.0607 48.092 46.3556 47.9905 47.5858 47.6215C48.816 47.2525 49.953 46.6245 50.9203 45.7796C51.8877 44.9347 52.663 43.8926 53.1942 42.7232C53.7254 41.5539 54.0001 40.2844 54 39V27.75C54 25.68 52.32 24 50.25 24H43.863C44.451 24.876 44.838 25.899 44.958 27H50.25C50.4489 27 50.6397 27.079 50.7803 27.2197C50.921 27.3603 51 27.5511 51 27.75V39C51.0002 39.8133 50.8351 40.6182 50.5146 41.3657C50.1941 42.1132 49.725 42.7878 49.1358 43.3484C48.5465 43.909 47.8495 44.344 47.0869 44.6269C46.3244 44.9098 45.5123 45.0347 44.7 44.994C44.4973 45.9978 44.1917 46.9779 43.788 47.919ZM21.75 24C19.68 24 18 25.68 18 27.75V42C18 45.1826 19.2643 48.2348 21.5147 50.4853C23.7652 52.7357 26.8174 54 30 54C33.1826 54 36.2348 52.7357 38.4853 50.4853C40.7357 48.2348 42 45.1826 42 42V27.75C42 25.68 40.32 24 38.25 24H21.75ZM21 27.75C21 27.5511 21.079 27.3603 21.2197 27.2197C21.3603 27.079 21.5511 27 21.75 27H38.25C38.4489 27 38.6397 27.079 38.7803 27.2197C38.921 27.3603 39 27.5511 39 27.75V42C39 44.387 38.0518 46.6761 36.364 48.364C34.6761 50.0518 32.387 51 30 51C27.6131 51 25.3239 50.0518 23.636 48.364C21.9482 46.6761 21 44.387 21 42V27.75Z" fill="white"/>
</svg>
