<svg width="50" height="50" viewBox="0 0 50 50" fill="none" xmlns="http://www.w3.org/2000/svg">
<path d="M45.8008 22.3399L36.9922 30.0274L39.6308 41.4727C39.7705 42.071 39.7306 42.6972 39.5163 43.273C39.302 43.8488 38.9226 44.3487 38.4258 44.7101C37.9289 45.0715 37.3365 45.2784 36.7227 45.3049C36.1089 45.3315 35.5008 45.1765 34.9746 44.8594L24.9922 38.8047L15.0312 44.8594C14.505 45.1765 13.897 45.3315 13.2831 45.3049C12.6693 45.2784 12.0769 45.0715 11.58 44.7101C11.0832 44.3487 10.7039 43.8488 10.4895 43.273C10.2752 42.6972 10.2354 42.071 10.375 41.4727L13.0097 30.0391L4.1992 22.3399C3.7332 21.9379 3.39624 21.4074 3.23056 20.8147C3.06488 20.2221 3.07787 19.5937 3.2679 19.0084C3.45792 18.4231 3.81652 17.907 4.29873 17.5246C4.78094 17.1423 5.36529 16.9109 5.9785 16.8594L17.5918 15.8535L22.125 5.04102C22.3617 4.47367 22.761 3.98905 23.2726 3.64817C23.7842 3.30729 24.3852 3.1254 25 3.1254C25.6147 3.1254 26.2158 3.30729 26.7274 3.64817C27.239 3.98905 27.6383 4.47367 27.875 5.04102L32.4219 15.8535L44.0312 16.8594C44.6444 16.9109 45.2288 17.1423 45.711 17.5246C46.1932 17.907 46.5518 18.4231 46.7418 19.0084C46.9319 19.5937 46.9448 20.2221 46.7792 20.8147C46.6135 21.4074 46.2765 21.9379 45.8105 22.3399H45.8008Z" fill="#FFD233"/>
</svg>
